<svg xmlns="http://www.w3.org/2000/svg" xmlns:xlink="http://www.w3.org/1999/xlink" width="20" height="20" viewBox="86.5 419 34 34" fill="none">
  <path xmlns="http://www.w3.org/2000/svg" d="M110.001 444.254L111.468 442.743L104.568 435.589V426.637H102.597V436.42L110.001 444.254ZM103.491 452.991C101.226 452.991 99.0994 452.544 97.0944 451.65C95.0894 450.755 93.3448 449.539 91.8432 447.992C90.3417 446.445 89.1612 444.648 88.2933 442.582C87.434 440.534 87 438.334 87 436C87 433.666 87.434 431.475 88.3019 429.409C89.1699 427.344 90.3503 425.546 91.8519 423.999C93.3535 422.452 95.0981 421.236 97.1031 420.341C99.0994 419.447 101.235 419 103.5 419C105.765 419 107.892 419.447 109.897 420.341C111.902 421.236 113.647 422.452 115.148 423.999C116.65 425.546 117.83 427.344 118.698 429.409C119.566 431.466 120 433.666 120 436C120 438.334 119.566 440.525 118.698 442.591C117.83 444.656 116.65 446.454 115.148 448.001C113.647 449.548 111.902 450.764 109.897 451.659C107.901 452.553 105.765 453 103.5 453L103.491 452.991ZM103.491 450.961C107.484 450.961 110.904 449.494 113.751 446.57C116.598 443.637 118.012 440.123 118.012 436C118.012 431.877 116.589 428.363 113.751 425.43C110.904 422.497 107.493 421.039 103.491 421.039C99.49 421.039 96.0789 422.506 93.232 425.43C90.3851 428.363 88.9703 431.877 88.9703 436C88.9703 440.114 90.3937 443.637 93.232 446.57C96.0789 449.503 99.49 450.961 103.491 450.961Z" fill="black"/>
</svg>
