<svg width="25" height="25" viewBox="0 0 32 33" xmlns="http://www.w3.org/2000/svg">
  <path d="M9.6 24.1622L16 17.7622L22.4 24.1622L23.6622 22.9L17.2622 16.5L23.6622 10.1L22.4 8.83778L16 15.2378L9.6 8.83778L8.33778 10.1L14.7378 16.5L8.33778 22.9L9.6 24.1622ZM16 32.5C13.7956 32.5 11.7156 32.0733 9.76 31.2378C7.80444 30.4022 6.11556 29.2644 4.67556 27.8244C3.23556 26.3844 2.09778 24.6956 1.26222 22.74C0.426667 20.8022 0 18.7222 0 16.5C0 14.2778 0.426667 12.2156 1.26222 10.26C2.09778 8.30444 3.23556 6.61556 4.67556 5.17556C6.11556 3.73556 7.80444 2.59778 9.76 1.76222C11.6978 0.926667 13.7778 0.5 16 0.5C18.2222 0.5 20.2844 0.926667 22.24 1.76222C24.1956 2.59778 25.8844 3.73556 27.3244 5.17556C28.7644 6.61556 29.9022 8.30444 30.7378 10.26C31.5733 12.1978 32 14.2778 32 16.5C32 18.7222 31.5733 20.7844 30.7378 22.74C29.9022 24.6956 28.7644 26.3844 27.3244 27.8244C25.8844 29.2644 24.1956 30.4022 22.24 31.2378C20.3022 32.0733 18.2222 32.5 16 32.5ZM16 30.7222C19.9644 30.7222 23.3422 29.3356 26.0978 26.58C28.8533 23.8244 30.24 20.4644 30.24 16.4822C30.24 12.5 28.8533 9.14 26.0978 6.38444C23.3422 3.62889 19.9822 2.24222 16 2.24222C12.0178 2.24222 8.65778 3.62889 5.90222 6.38444C3.14667 9.14 1.76 12.5 1.76 16.4822C1.76 20.4644 3.14667 23.8244 5.90222 26.58C8.65778 29.3356 12.0178 30.7222 16 30.7222Z"/>
</svg>
