<svg xmlns="http://www.w3.org/2000/svg" xmlns:xlink="http://www.w3.org/1999/xlink" width="20" height="20" viewBox="31 794 34 34" fill="none">
  <path xmlns="http://www.w3.org/2000/svg" d="M46.4016 819.008H49.5984V809.418H46.4016V819.008ZM48 806.221C48.4476 806.221 48.8312 806.061 49.1349 805.757C49.4386 805.454 49.5984 805.07 49.5984 804.622C49.5984 804.175 49.4386 803.791 49.1349 803.488C48.8312 803.184 48.4476 803.024 48 803.024C47.5524 803.024 47.1688 803.184 46.8651 803.488C46.5614 803.791 46.4016 804.175 46.4016 804.622C46.4016 805.07 46.5614 805.454 46.8651 805.757C47.1688 806.061 47.5524 806.221 48 806.221ZM48 827C45.7942 827 43.7163 826.584 41.7662 825.737C39.8162 824.89 38.1219 823.755 36.6833 822.317C35.2448 820.878 34.1099 819.184 33.2627 817.234C32.4156 815.284 32 813.206 32 811C32 808.794 32.4156 806.716 33.2627 804.766C34.1099 802.816 35.2448 801.122 36.6833 799.683C38.1219 798.245 39.8162 797.11 41.7662 796.263C43.7163 795.416 45.7942 795 48 795C50.2058 795 52.2837 795.416 54.2338 796.263C56.1838 797.11 57.8781 798.245 59.3167 799.683C60.7552 801.122 61.8901 802.816 62.7373 804.766C63.5844 806.716 64 808.794 64 811C64 813.206 63.5844 815.284 62.7373 817.234C61.8901 819.184 60.7552 820.878 59.3167 822.317C57.8781 823.755 56.1838 824.89 54.2338 825.737C52.2837 826.584 50.2058 827 48 827ZM48 823.803C51.5644 823.803 54.6014 822.556 57.0789 820.079C59.5564 817.601 60.8032 814.58 60.8032 811C60.8032 807.42 59.5564 804.399 57.0789 801.921C54.6014 799.444 51.5804 798.197 48 798.197C44.4196 798.197 41.3986 799.444 38.9211 801.921C36.4436 804.399 35.1968 807.42 35.1968 811C35.1968 814.58 36.4436 817.601 38.9211 820.079C41.3986 822.556 44.4196 823.803 48 823.803Z" fill="black"/>
</svg>
