<svg xmlns="http://www.w3.org/2000/svg" xmlns:xlink="http://www.w3.org/1999/xlink" width="20" height="20" viewBox="273 555 34 34" fill="none">
  <path xmlns="http://www.w3.org/2000/svg" d="M291.816 588.5V586.518C293.151 586.335 294.417 585.994 295.64 585.488C296.853 584.99 297.962 584.344 298.974 583.541L300.31 584.99C299.07 586.003 297.743 586.798 296.338 587.356C294.924 587.915 293.422 588.299 291.824 588.491L291.816 588.5ZM302.973 582.328L301.55 580.975C302.327 579.953 302.964 578.844 303.47 577.648C303.977 576.461 304.326 575.178 304.518 573.816H306.526C306.325 575.405 305.924 576.915 305.313 578.347C304.701 579.779 303.924 581.106 302.973 582.319V582.328ZM304.518 570.184C304.326 568.822 303.977 567.548 303.47 566.369C302.964 565.19 302.327 564.073 301.55 563.034L302.99 561.698C304.038 563.121 304.824 564.466 305.33 565.732C305.836 566.998 306.238 568.49 306.535 570.184H304.527H304.518ZM288.158 588.5C283.95 588.002 280.449 586.195 277.664 583.061C274.87 579.936 273.474 576.243 273.474 572C273.474 567.757 274.87 564.064 277.655 560.93C280.44 557.796 283.941 555.98 288.158 555.5V557.482C284.5 557.979 281.47 559.594 279.061 562.344C276.651 565.094 275.455 568.307 275.455 572C275.455 575.693 276.66 578.906 279.061 581.647C281.47 584.388 284.5 586.012 288.158 586.518V588.5ZM299.036 560.485C297.927 559.699 296.757 559.053 295.543 558.547C294.33 558.04 293.125 557.683 291.92 557.473V555.5C293.405 555.718 294.854 556.12 296.268 556.687C297.691 557.263 299.036 558.032 300.301 559.001L299.027 560.485H299.036Z" fill="black"/>
  <path xmlns="http://www.w3.org/2000/svg" d="M293.518 569.547C293.518 571.319 292.06 572.768 290.288 572.768C288.516 572.768 287.067 571.302 287.075 569.529C287.084 567.766 288.533 566.325 290.297 566.325C292.069 566.325 293.518 567.783 293.518 569.556V569.547ZM290.262 571.476C291.301 571.511 292.191 570.656 292.226 569.582C292.261 568.543 291.414 567.652 290.34 567.618C289.293 567.574 288.393 568.447 288.367 569.521C288.341 570.56 289.197 571.45 290.27 571.476H290.262Z" fill="black" stroke="black" stroke-width="0.5" stroke-miterlimit="10"/>
  <path xmlns="http://www.w3.org/2000/svg" d="M285.835 576.086L289.808 582.206C289.878 582.258 289.956 582.302 290.052 582.319C290.262 582.354 290.419 582.302 290.558 582.197L294.426 576.243C295.02 575.318 295.613 574.401 296.198 573.467C297.202 571.86 297.508 570.114 297.124 568.272C296.757 566.483 295.823 565.025 294.339 563.96C292.191 562.423 289.843 562.135 287.424 563.174C285.076 564.178 283.67 566.02 283.216 568.543C282.902 570.298 283.243 571.948 284.185 573.458C284.735 574.34 285.294 575.204 285.853 576.077L285.835 576.086ZM285.172 566.779C286.019 565.278 287.328 564.344 289.013 564.003C292.069 563.383 295.02 565.26 295.788 568.298C296.198 569.931 295.936 571.459 295.028 572.882C293.457 575.344 291.885 577.806 290.314 580.259C290.27 580.32 290.227 580.39 290.166 580.477C289.336 579.176 288.533 577.91 287.721 576.645C286.901 575.361 286.054 574.095 285.259 572.786C284.063 570.813 284.037 568.779 285.172 566.771V566.779Z" fill="black" stroke="black" stroke-width="0.5" stroke-miterlimit="10"/>
</svg>
