<svg xmlns="http://www.w3.org/2000/svg" xmlns:xlink="http://www.w3.org/1999/xlink" width="20" height="20" viewBox="273 419 34 34" fill="none">
  <path xmlns="http://www.w3.org/2000/svg" d="M293.558 442.207C293.88 443.024 294.169 443.741 294.445 444.463C294.754 445.27 294.571 446.055 293.974 446.551C293.045 447.321 291.709 446.984 291.223 445.846C290.978 445.271 290.769 444.683 290.53 444.107C290.468 443.958 290.462 443.692 290.227 443.738C289.944 443.794 289.597 443.664 289.41 444.065C288.837 445.292 288.232 446.504 287.639 447.721C287.248 448.525 286.868 449.336 286.459 450.132C284.681 453.599 279.961 454.005 277.611 450.898C277.49 450.737 277.356 450.595 277.193 450.474C274.209 448.265 274.282 443.878 277.339 441.762C279.12 440.53 280.906 439.307 282.697 438.091C282.965 437.909 283.086 437.804 282.876 437.444C282.254 436.379 282.834 435.081 284.035 434.773C284.283 434.709 284.396 434.61 284.456 434.351C284.632 433.592 285.125 433.123 285.887 432.961C286.076 432.922 286.155 432.854 286.198 432.657C286.366 431.873 286.834 431.354 287.632 431.184C287.818 431.145 287.88 431.05 287.924 430.889C288.213 429.815 288.898 429.296 290.005 429.34C290.249 429.35 290.3 429.248 290.349 429.054C290.846 427.11 291.487 425.217 292.383 423.417C292.98 422.218 293.679 421.092 294.669 420.172C296.41 418.554 298.798 418.618 300.405 420.323C300.847 420.793 301.113 421.35 301.214 421.98C301.254 422.225 301.369 422.335 301.587 422.425C303.448 423.194 304.623 424.555 304.926 426.561C305.243 428.66 304.541 430.42 302.825 431.672C300.963 433.031 299.037 434.301 297.132 435.602C296.925 435.744 296.837 435.859 296.907 436.14C297.154 437.124 296.493 438.166 295.489 438.407C295.278 438.458 295.152 438.535 295.113 438.756C295.069 439.007 295.258 439.047 295.414 439.12C296.244 439.509 297.087 439.874 297.903 440.291C298.548 440.621 298.878 441.331 298.79 442.037C298.7 442.768 298.219 443.342 297.531 443.541C297.067 443.677 296.626 443.61 296.195 443.411C295.501 443.09 294.807 442.771 294.112 442.452C293.963 442.385 293.813 442.321 293.558 442.207ZM280.551 448.211C280.851 448.204 281.266 447.944 281.574 447.537C283.137 445.475 284.686 443.403 286.245 441.338C286.361 441.184 286.357 441.079 286.217 440.947C285.978 440.722 285.738 440.493 285.524 440.244C285.333 440.021 285.191 440.002 284.946 440.194C283.762 441.122 282.562 442.029 281.367 442.944C280.602 443.53 279.835 444.113 279.073 444.704C278.644 445.037 278.291 445.432 278.244 446.003C278.163 447 279.31 448.215 280.55 448.212L280.551 448.211ZM300.079 422.697C300.064 422.083 299.914 421.509 299.462 421.085C298.391 420.083 296.989 419.845 295.725 420.848C295.175 421.285 294.724 421.81 294.345 422.396C292.857 424.691 292.056 427.261 291.382 429.881C291.317 430.134 291.44 430.337 291.645 430.391C291.835 430.44 291.82 430.185 291.862 430.059C292.548 428.051 293.29 426.066 294.301 424.195C294.772 423.324 295.273 422.466 296.054 421.824C297.039 421.014 298.291 421.415 298.63 422.648C298.78 423.194 298.742 423.746 298.603 424.29C298.367 425.213 297.937 426.05 297.442 426.854C296.319 428.677 294.956 430.313 293.48 431.855C293.244 432.102 293.403 432.198 293.546 432.361C293.707 432.545 293.822 432.549 293.994 432.364C294.692 431.614 295.401 430.875 296.056 430.087C297.362 428.518 298.594 426.899 299.456 425.032C299.8 424.288 300.037 423.517 300.079 422.696L300.079 422.697ZM280.263 450.261C281.659 450.261 282.848 449.604 283.69 448.357C284.954 446.484 286.205 444.601 287.482 442.735C287.678 442.45 287.607 442.288 287.378 442.129C287.118 441.947 287.081 442.244 287.001 442.351C285.587 444.218 284.184 446.094 282.78 447.969C282.567 448.253 282.338 448.521 282.066 448.748C281.226 449.453 280.296 449.631 279.271 449.212C278.828 449.032 278.446 448.758 278.113 448.419C277.353 447.645 276.871 446.756 277.079 445.628C277.241 444.754 277.8 444.147 278.485 443.625C280.357 442.201 282.224 440.766 284.091 439.334C284.37 439.12 284.354 438.981 284.063 438.782C283.879 438.656 283.776 438.807 283.662 438.885C281.759 440.188 279.845 441.474 277.965 442.809C276.664 443.734 276.084 445.032 276.252 446.636C276.469 448.709 278.192 450.261 280.263 450.259V450.261ZM303.808 427.342C303.737 425.842 303.09 424.64 301.763 423.839C301.217 423.509 301.222 423.519 301.054 424.123C300.988 424.362 301.024 424.5 301.256 424.634C301.751 424.92 302.143 425.333 302.453 425.812C302.97 426.616 303.164 427.471 302.795 428.397C302.523 429.08 302.017 429.559 301.448 429.994C299.604 431.397 297.765 432.809 295.927 434.219C295.644 434.436 295.66 434.579 295.949 434.771C296.116 434.881 296.215 434.762 296.325 434.688C298.237 433.378 300.155 432.079 302.054 430.752C303.216 429.94 303.757 428.777 303.808 427.342ZM301.775 427.335C301.702 426.683 301.296 426.146 300.713 425.719C300.534 425.588 300.47 425.719 300.398 425.854C300.19 426.249 299.991 426.65 299.76 427.033C298.395 429.307 296.692 431.313 294.841 433.2C294.767 433.275 294.595 433.352 294.692 433.476C294.81 433.627 294.921 433.463 295.014 433.392C296.678 432.122 298.343 430.854 300.001 429.576C300.43 429.246 300.883 428.948 301.265 428.56C301.573 428.247 301.768 427.882 301.774 427.337L301.775 427.335ZM293.292 438.961C293.57 438.965 293.779 438.872 293.883 438.628C294.02 438.31 293.932 438.028 293.696 437.789C291.966 436.045 290.237 434.299 288.502 432.56C288.211 432.268 287.814 432.268 287.561 432.529C287.319 432.778 287.327 433.2 287.605 433.482C289.328 435.233 291.057 436.979 292.783 438.727C292.93 438.876 293.098 438.972 293.292 438.961ZM295.766 436.591C295.763 436.309 295.606 436.151 295.446 435.991C293.831 434.364 292.217 432.737 290.602 431.111C290.453 430.961 290.307 430.806 290.15 430.665C289.899 430.44 289.64 430.461 289.389 430.67C289.019 430.977 289.005 431.334 289.362 431.694C290.418 432.765 291.482 433.83 292.54 434.899C293.234 435.6 293.923 436.307 294.616 437.012C294.801 437.199 295.015 437.313 295.28 437.196C295.556 437.075 295.729 436.865 295.767 436.591H295.766ZM292.176 440.113C292.199 439.877 292.043 439.702 291.873 439.532C290.201 437.841 288.531 436.15 286.858 434.461C286.784 434.385 286.708 434.31 286.622 434.249C286.359 434.065 286.09 434.07 285.843 434.275C285.607 434.471 285.562 434.729 285.66 435.011C285.724 435.194 285.869 435.322 286.002 435.455C287.635 437.101 289.267 438.747 290.902 440.393C291.001 440.492 291.101 440.599 291.218 440.673C291.647 440.937 292.167 440.645 292.176 440.114V440.113ZM284.48 435.93C284.209 435.927 284.019 436.044 283.908 436.28C283.769 436.575 283.851 436.835 284.064 437.055C284.54 437.544 285.023 438.025 285.503 438.511C286.751 439.774 287.995 441.042 289.248 442.301C289.565 442.619 289.952 442.635 290.22 442.376C290.497 442.107 290.479 441.703 290.165 441.375C289.938 441.136 289.702 440.906 289.471 440.673C288.024 439.208 286.579 437.743 285.132 436.278C284.949 436.092 284.765 435.906 284.48 435.931V435.93ZM292.992 430.51C293.097 430.534 293.128 430.475 293.164 430.435C294.274 429.187 295.336 427.899 296.237 426.488C296.769 425.656 297.276 424.805 297.494 423.823C297.558 423.533 297.582 423.239 297.46 422.957C297.293 422.566 297.083 422.511 296.757 422.777C296.369 423.092 296.086 423.499 295.831 423.924C294.809 425.627 294.09 427.466 293.406 429.32C293.261 429.714 293.131 430.111 292.992 430.511V430.51ZM287.984 444.259C287.968 444.245 287.953 444.231 287.937 444.216C287.859 444.331 287.78 444.446 287.702 444.562C286.67 446.093 285.646 447.629 284.604 449.154C283.696 450.479 282.44 451.247 280.841 451.44C280.715 451.455 280.591 451.482 280.381 451.517C282.333 452.224 284.426 451.436 285.349 449.647C286.265 447.87 287.11 446.057 287.985 444.259H287.984ZM294.296 439.971C294.017 440.054 293.75 440.11 293.504 440.215C293.281 440.311 293.295 440.744 293.523 440.85C294.619 441.36 295.718 441.866 296.822 442.357C297.15 442.503 297.515 442.298 297.585 441.952C297.654 441.604 297.458 441.396 297.167 441.261C296.282 440.852 295.397 440.446 294.51 440.041C294.437 440.007 294.356 439.99 294.296 439.971ZM293.375 445.145C293.368 445.105 293.365 445.032 293.34 444.968C292.961 444.007 292.58 443.048 292.201 442.088C292.157 441.975 292.097 441.913 291.964 441.941C291.827 441.969 291.679 441.96 291.626 442.136C291.484 442.6 291.302 443.039 291.588 443.539C291.819 443.942 291.946 444.404 292.123 444.84C292.211 445.056 292.291 445.279 292.404 445.483C292.534 445.716 292.758 445.792 293.009 445.713C293.26 445.633 293.381 445.441 293.375 445.145Z" fill="black"/>
</svg>
