<svg xmlns="http://www.w3.org/2000/svg" xmlns:xlink="http://www.w3.org/1999/xlink" width="20" height="20" viewBox="86.5 691.4 34 34" fill="none">
  <g xmlns="http://www.w3.org/2000/svg" clip-path="url(#clip8_511_2031)">
    <path d="M103.26 724.962C100.572 724.962 97.8922 724.923 95.2042 724.978C93.4682 725.01 92.0362 723.579 92.1082 721.934C92.1562 720.977 92.1162 720.02 92.1082 719.064C92.1082 718.542 92.1082 718.534 91.5642 718.542C91.1242 718.55 90.7162 718.479 90.3402 718.241C89.7802 717.878 89.5002 717.356 89.4922 716.707C89.5002 715.11 89.5002 713.521 89.5002 711.932C89.5002 711.41 89.7562 711.157 90.2842 711.141C90.7322 711.125 91.1882 711.109 91.6362 711.141C92.0282 711.165 92.1162 711.014 92.1162 710.651C92.1002 707.82 92.1642 704.981 92.0922 702.151C92.0362 699.755 93.8122 697.541 96.3482 697.217C96.7162 697.169 97.1002 697.161 97.4762 697.185C97.8362 697.209 97.9242 697.067 97.9162 696.734C97.9002 695.604 97.9082 694.473 97.9162 693.342C97.9322 692.259 98.6842 691.5 99.7642 691.5C102.108 691.5 104.46 691.5 106.804 691.5C107.876 691.5 108.652 692.267 108.66 693.334C108.668 694.465 108.676 695.596 108.66 696.727C108.66 697.067 108.748 697.193 109.108 697.169C110.188 697.106 111.212 697.296 112.132 697.873C113.636 698.814 114.436 700.174 114.46 701.937C114.492 704.823 114.468 707.701 114.468 710.587C114.468 710.946 114.647 711.125 115.004 711.125C115.364 711.125 115.732 711.125 116.092 711.125C116.692 711.141 116.94 711.378 116.94 711.971C116.94 713.521 116.948 715.079 116.94 716.628C116.932 717.751 116.14 718.51 115.004 718.526C114.647 718.526 114.466 718.703 114.46 719.056C114.46 720.028 114.46 720.993 114.46 721.966C114.452 723.681 113.172 724.947 111.428 724.954C108.708 724.954 105.98 724.954 103.26 724.954V724.962ZM113.156 711.884C113.156 708.682 113.156 705.472 113.156 702.269C113.156 701.961 113.156 701.645 113.1 701.344C112.772 699.636 111.372 698.482 109.572 698.474C105.38 698.466 101.188 698.474 96.9962 698.474C96.7482 698.474 96.4922 698.474 96.2522 698.529C94.5002 698.901 93.3802 700.316 93.3802 702.174C93.3802 708.682 93.3802 715.197 93.3802 721.705C93.3802 723.057 94.0442 723.705 95.4202 723.705C100.668 723.705 105.908 723.697 111.156 723.713C112.228 723.713 113.188 723.144 113.164 721.713C113.116 718.431 113.148 715.15 113.148 711.868L113.156 711.884ZM103.3 692.749C102.212 692.749 101.116 692.749 100.028 692.749C99.3962 692.749 99.1882 692.947 99.1882 693.572C99.1882 694.544 99.1882 695.509 99.1882 696.481C99.1882 697.24 99.0522 697.169 99.9242 697.185C100.188 697.185 100.276 697.09 100.268 696.837C100.26 696.141 100.268 695.446 100.268 694.75C100.268 694.054 100.492 693.833 101.188 693.833C102.58 693.833 103.972 693.833 105.364 693.833C106.084 693.833 106.3 694.054 106.308 694.773C106.308 695.446 106.332 696.118 106.308 696.782C106.292 697.225 106.556 697.177 106.844 697.185C107.14 697.185 107.38 697.209 107.372 696.774C107.348 695.691 107.372 694.615 107.364 693.532C107.364 692.931 107.188 692.757 106.58 692.757C105.492 692.757 104.396 692.757 103.308 692.757L103.3 692.749ZM103.3 697.169C103.748 697.169 104.204 697.161 104.652 697.169C104.9 697.169 105.02 697.106 105.012 696.837C104.996 696.379 104.996 695.92 105.012 695.461C105.012 695.208 104.924 695.106 104.66 695.113C103.748 695.121 102.836 695.121 101.916 695.113C101.652 695.113 101.564 695.224 101.572 695.469C101.58 695.928 101.58 696.387 101.572 696.845C101.572 697.082 101.668 697.177 101.908 697.169C102.372 697.161 102.836 697.169 103.3 697.169ZM92.1242 714.833C92.1242 714.13 92.1242 713.418 92.1242 712.714C92.1242 712.406 91.9242 712.382 91.7242 712.43C91.4202 712.509 90.8602 712.153 90.8362 712.691C90.7642 714.035 90.8122 715.395 90.8202 716.747C90.8202 717.032 91.0122 717.198 91.3002 717.229C91.4362 717.245 91.5802 717.229 91.7162 717.237C92.0202 717.269 92.1402 717.158 92.1322 716.842C92.1162 716.17 92.1322 715.506 92.1322 714.833H92.1242ZM114.46 714.833C114.46 715.513 114.46 716.201 114.46 716.881C114.46 717.008 114.428 717.158 114.604 717.229C115.156 717.451 115.628 717.134 115.628 716.541C115.628 715.427 115.628 714.304 115.628 713.189C115.628 712.335 115.756 712.446 114.836 712.422C114.524 712.422 114.452 712.54 114.46 712.817C114.476 713.489 114.46 714.161 114.46 714.826V714.833Z" fill="black"/>
    <path d="M103.3 713.125C105.22 713.125 107.14 713.125 109.06 713.125C110.252 713.125 110.996 713.877 111.004 715.063C111.004 715.387 111.004 715.711 111.004 716.035C110.996 716.905 110.508 717.585 109.668 717.799C109.324 717.885 109.236 718.044 109.252 718.368C109.276 718.716 109.268 719.064 109.212 719.412C109.012 720.558 108.084 721.38 106.916 721.38C104.508 721.388 102.1 721.396 99.6918 721.38C98.3798 721.38 97.3638 720.36 97.3398 719.064C97.3398 718.763 97.3398 718.471 97.3398 718.17C97.3398 717.996 97.2838 717.909 97.0998 717.862C96.1158 717.601 95.6518 717.063 95.5718 716.083C95.5318 715.616 95.5318 715.142 95.6038 714.667C95.7478 713.766 96.4758 713.133 97.4038 713.133C99.3718 713.133 101.34 713.133 103.316 713.133L103.3 713.125ZM103.284 716.628C104.348 716.628 105.412 716.628 106.476 716.628C107.3 716.628 108.132 716.628 108.956 716.628C109.5 716.628 109.684 716.439 109.692 715.917C109.692 715.703 109.692 715.498 109.692 715.284C109.692 714.509 109.556 714.375 108.78 714.375C105.124 714.375 101.46 714.375 97.8038 714.375C97.6918 714.375 97.5798 714.375 97.4678 714.375C97.0678 714.414 96.8598 714.628 96.8438 715.031C96.8358 715.276 96.8438 715.529 96.8438 715.774C96.8438 716.439 97.0358 716.628 97.7238 716.628C99.5798 716.628 101.436 716.628 103.292 716.628H103.284ZM103.332 717.878C102.092 717.878 100.852 717.878 99.6118 717.878C98.9558 717.878 98.6305 718.207 98.6358 718.866C98.6358 719.728 99.0518 720.131 99.9318 720.139C101.036 720.139 102.14 720.139 103.244 720.139C104.388 720.139 105.524 720.139 106.668 720.139C107.516 720.139 107.948 719.704 107.948 718.882C107.948 718.692 107.932 718.51 107.948 718.32C107.98 717.988 107.86 717.87 107.508 717.87C106.116 717.885 104.724 717.87 103.332 717.87V717.878Z" fill="black"/>
    <path d="M103.332 700.387C104.436 700.387 105.54 700.372 106.644 700.387C107.58 700.403 108.26 701.036 108.404 701.961C108.516 702.696 108.004 703.503 107.244 703.772C106.972 703.874 106.684 703.898 106.396 703.898C104.324 703.898 102.26 703.898 100.188 703.898C99.4998 703.898 98.8918 703.708 98.4918 703.115C98.1078 702.546 98.0518 701.929 98.3878 701.32C98.7238 700.696 99.2838 700.387 99.9878 700.387C101.1 700.379 102.22 700.387 103.34 700.387H103.332ZM103.3 701.684C102.22 701.684 101.148 701.684 100.068 701.684C99.6758 701.684 99.4758 701.85 99.4838 702.159C99.4838 702.459 99.6918 702.617 100.084 702.617C102.212 702.617 104.348 702.617 106.476 702.617C106.868 702.617 107.108 702.419 107.108 702.135C107.108 701.842 106.892 701.684 106.46 701.684C105.404 701.684 104.356 701.684 103.3 701.684Z" fill="black"/>
    <path d="M103.852 715.498C103.852 715.822 103.62 716.067 103.3 716.075C102.98 716.083 102.692 715.814 102.692 715.498C102.692 715.182 102.98 714.913 103.3 714.921C103.62 714.928 103.852 715.174 103.852 715.498Z" fill="black"/>
  </g>
</svg>
