<svg xmlns="http://www.w3.org/2000/svg" xmlns:xlink="http://www.w3.org/1999/xlink" width="20" height="20" viewBox="86.5 555 34 34" fill="none">
  <g xmlns="http://www.w3.org/2000/svg" clip-path="url(#clip4_511_2031)">
    <path d="M91.4556 557.329C93.3662 557.363 95.2852 557.912 96.9158 559.19C99.0818 560.888 100.021 563.734 100.119 566.47C100.21 568.922 100.07 571.417 100.07 573.878V580.009V586.765" stroke="black" stroke-width="1.5" stroke-miterlimit="10"/>
    <path d="M108.512 586.722V573.835C108.512 571.005 108.668 569.333 108.561 566.427C108.462 563.683 107.523 560.845 105.357 559.147C104.122 558.178 102.631 557.603 101.1 557.381C99.4359 557.132 97.7229 557.329 96.0511 557.329H91.085" stroke="black" stroke-width="1.5" stroke-miterlimit="10"/>
    <path d="M106.625 584.768C106.691 581.552 106.625 579.408 106.625 579.408V584.768Z" fill="white"/>
    <path d="M106.625 584.768C106.691 581.552 106.625 579.408 106.625 579.408" stroke="black" stroke-width="0.8" stroke-miterlimit="10"/>
    <path d="M105.209 582.118C105.258 578.191 105.209 575.576 105.209 575.576V582.118Z" fill="white"/>
    <path d="M105.209 582.118C105.258 578.191 105.209 575.576 105.209 575.576" stroke="black" stroke-width="0.8" stroke-miterlimit="10"/>
    <path d="M104.048 572.412C104.114 569.196 104.048 567.052 104.048 567.052V572.412Z" fill="white"/>
    <path d="M104.048 572.412C104.114 569.196 104.048 567.052 104.048 567.052" stroke="black" stroke-width="0.8" stroke-miterlimit="10"/>
    <path d="M102.623 570.628C102.672 566.701 102.623 564.086 102.623 564.086V570.628Z" fill="white"/>
    <path d="M102.623 570.628C102.672 566.701 102.623 564.086 102.623 564.086" stroke="black" stroke-width="0.8" stroke-miterlimit="10"/>
    <path d="M107.762 557.586H116.5" stroke="black" stroke-width="1.5" stroke-miterlimit="10"/>
    <path d="M90.5 586.722H115.998" stroke="black" stroke-width="1.5" stroke-miterlimit="10"/>
    <path d="M114.054 556V588" stroke="black" stroke-width="1.5" stroke-miterlimit="10"/>
  </g>
</svg>
